<svg xmlns="http://www.w3.org/2000/svg" xmlns:xlink="http://www.w3.org/1999/xlink" width="172.294" height="81.167" viewBox="0 0 172.294 81.167">
  <defs>
    <linearGradient id="linear-gradient" x1="-29.333" y1="-7.933" x2="23.501" y2="6.78" gradientUnits="objectBoundingBox">
      <stop offset="0" stop-color="#ad3642"/>
      <stop offset="0.33" stop-color="#ed4e25"/>
      <stop offset="0.49" stop-color="#f69a2e"/>
      <stop offset="0.59" stop-color="#fbbb32"/>
      <stop offset="0.74" stop-color="#ffde59"/>
      <stop offset="1" stop-color="#ced0d1"/>
    </linearGradient>
    <linearGradient id="linear-gradient-2" x1="-19.038" y1="-7.897" x2="16.81" y2="7.465" xlink:href="#linear-gradient"/>
    <linearGradient id="linear-gradient-3" x1="0.031" y1="0.197" x2="1.328" y2="0.793" xlink:href="#linear-gradient"/>
    <linearGradient id="linear-gradient-4" x1="-1.992" y1="-2.771" x2="3.933" y2="5.028" xlink:href="#linear-gradient"/>
    <linearGradient id="linear-gradient-5" x1="-5.681" y1="-2.486" x2="14.032" y2="7.086" xlink:href="#linear-gradient"/>
    <linearGradient id="linear-gradient-6" x1="-4.85" y1="-2.922" x2="8.58" y2="5.666" xlink:href="#linear-gradient"/>
    <linearGradient id="linear-gradient-7" x1="-7.056" y1="-3.189" x2="7.951" y2="4.16" xlink:href="#linear-gradient"/>
    <linearGradient id="linear-gradient-8" x1="-3.952" y1="-1.655" x2="6.21" y2="3.249" xlink:href="#linear-gradient"/>
  </defs>
  <g id="logo" transform="translate(-240 -11)">
    <g id="Group_90" data-name="Group 90">
      <g id="Group_87" data-name="Group 87">
        <path id="Path_58" data-name="Path 58" d="M275.574,56.553h-9.23a6.048,6.048,0,0,0-4.416,1.649,5.905,5.905,0,0,0-1.669,4.393V68.62a5.884,5.884,0,0,0,6.163,6.164h13.341V72.466H266.417a3.361,3.361,0,0,1-2.675-1.175,4.215,4.215,0,0,1-1.052-2.863V62.715a3.856,3.856,0,0,1,1-2.736,3.494,3.494,0,0,1,2.613-1.109l9.081-.115a3.641,3.641,0,0,1,2.8,1.038,3.762,3.762,0,0,1,1.075,2.808,4.427,4.427,0,0,1-1.029,3.05,3.581,3.581,0,0,1-2.854,1.14h-6.2v2.317h6.2a6.3,6.3,0,0,0,4.486-1.682,5.761,5.761,0,0,0,1.793-4.366,6.8,6.8,0,0,0-1.541-4.636A5.8,5.8,0,0,0,275.574,56.553Z" fill="#231f20"/>
        <path id="Path_59" data-name="Path 59" d="M290.815,66.375l-.187-.172-7.988,6.771.048,1.773h1.7l8.065-6.888-.247-.221C291.743,67.219,291.276,66.8,290.815,66.375Z" fill="#231f20"/>
        <path id="Path_60" data-name="Path 60" d="M243.549,71.29a4.133,4.133,0,0,1-1.065-2.862V56.553h-2.432V68.62a5.971,5.971,0,0,0,1.767,4.42,6.065,6.065,0,0,0,4.433,1.744H258.4V72.466H246.252A3.437,3.437,0,0,1,243.549,71.29Z" fill="#231f20"/>
        <path id="Path_61" data-name="Path 61" d="M301.56,56.824l-8.261,7.05.2.221q.646.7,1.3,1.4l.188.2,8.317-7.1-.048-1.772Z" fill="#231f20"/>
        <rect id="Rectangle_117" data-name="Rectangle 117" width="2.703" height="17.688" transform="translate(305.566 57.058)" fill="#231f20"/>
        <rect id="Rectangle_118" data-name="Rectangle 118" width="2.703" height="2.239" transform="translate(305.566 51.764)" fill="#231f20"/>
      </g>
      <path id="Path_62" data-name="Path 62" d="M293.225,63.2l2.678,2.837-2.814,2.36-2.678-2.5Z" fill="#fff" stroke="#fff" stroke-width="0.579" fill-rule="evenodd"/>
      <g id="Group_88" data-name="Group 88">
        <path id="Path_63" data-name="Path 63" d="M398.686,58.648a6.081,6.081,0,0,0-4.477-1.824H385.6a6.3,6.3,0,0,0-4.47,1.7,5.743,5.743,0,0,0-1.808,4.34V74.747h2.395V62.866a3.454,3.454,0,0,1,1.146-2.645,3.873,3.873,0,0,1,2.737-1.08h8.61a3.864,3.864,0,0,1,2.736,1.081,3.451,3.451,0,0,1,1.146,2.644V74.747h2.4V63.139A6.176,6.176,0,0,0,398.686,58.648Z" fill="#ad3642"/>
        <path id="Path_64" data-name="Path 64" d="M370.318,56.787h-8.609a6.337,6.337,0,0,0-4.5,1.712,5.775,5.775,0,0,0-1.821,4.367V74.784h2.47V62.866A3.417,3.417,0,0,1,359,60.248a3.833,3.833,0,0,1,2.711-1.07h8.609a3.831,3.831,0,0,1,2.711,1.071,3.411,3.411,0,0,1,1.135,2.617V74.784h2.469V63.139a6.21,6.21,0,0,0-1.812-4.517A6.11,6.11,0,0,0,370.318,56.787Z" fill="#ad3642"/>
        <path id="Path_65" data-name="Path 65" d="M351.147,58.293a6.155,6.155,0,0,0-4.408-1.663h-8.85a6.185,6.185,0,0,0-4.429,1.646,5.715,5.715,0,0,0-1.729,4.319v6.031a5.97,5.97,0,0,0,6.158,6.158h9a5.733,5.733,0,0,0,4.322-1.771,6.115,6.115,0,0,0,1.685-4.387V62.6a5.715,5.715,0,0,0-1.75-4.3Zm-.683,4.694v5.445a4.214,4.214,0,0,1-1.05,2.859,3.366,3.366,0,0,1-2.675,1.175h-8.85a3.36,3.36,0,0,1-2.674-1.175,4.21,4.21,0,0,1-1.052-2.859V62.987a4.271,4.271,0,0,1,1.053-2.881,3.342,3.342,0,0,1,2.673-1.194h8.85a3.344,3.344,0,0,1,2.673,1.194A4.276,4.276,0,0,1,350.464,62.987Z" fill="#ad3642"/>
        <path id="Path_66" data-name="Path 66" d="M313.748,58.276a5.723,5.723,0,0,0-1.729,4.319v6.031a6.017,6.017,0,0,0,1.726,4.451,6.083,6.083,0,0,0,4.437,1.707H331.01V72.466H318.178a3.391,3.391,0,0,1-2.661-1.176,4.179,4.179,0,0,1-1.066-2.858V62.987a4.239,4.239,0,0,1,1.066-2.879,3.373,3.373,0,0,1,2.661-1.2H331.01V56.63H318.182A6.2,6.2,0,0,0,313.748,58.276Z" fill="#ad3642"/>
      </g>
      <g id="Group_89" data-name="Group 89">
        <path id="Path_67" data-name="Path 67" d="M286.788,58.064l.2.147-.047-.243a4.019,4.019,0,0,1-.03-2.151l.051-.188-.181.073a.972.972,0,0,1-.3.023l-.085,0-.013.084c-.012.074-.034.163-.059.262A1.715,1.715,0,0,0,286.788,58.064Z" fill="url(#linear-gradient)"/>
        <path id="Path_68" data-name="Path 68" d="M286.746,54.248l-.207.084a.923.923,0,0,1-.287.024h-.08l-.024.061c-.03.073-.075.164-.125.268a2.618,2.618,0,0,0-.383,1.8l.074.235.106-.222c.316-.661.574-1.333.823-1.982Z" fill="url(#linear-gradient-2)"/>
        <path id="Path_69" data-name="Path 69" d="M303.814,74.745c-1.324-.943-12.928-9.379-12.6-14.911l0-.048-.081-.061-.041,0c-.09.01-.182.115-.5.529a5.615,5.615,0,0,1-.355.436l-.023-.021-.065.069a2.73,2.73,0,0,1-.479.387,1.106,1.106,0,0,0-.134-.13c-.207-1.644.172-3.717.622-4.139l.157-.148-.215-.02a.67.67,0,0,0-.51.15c-.4.339-.476,1.165-.551,2.041a7.833,7.833,0,0,1-.2,1.393,5.224,5.224,0,0,1-.412-.637,3.755,3.755,0,0,0-.691-.951l-.225-.192.09.384c.065.271.137.579.233.878-1.284-1.624-2.739-3.534-4.147-5.68-2.633-5.138-5.032-10.454-3-14.061a7.954,7.954,0,0,0,4.274-5.84,5.264,5.264,0,0,0,.116-1.247H284.9a9.576,9.576,0,0,1-.115,1.222,7.188,7.188,0,0,1-2.928,4.164c-.33.239-.631.428-.921.61a5.9,5.9,0,0,0-1.9,1.648,2.652,2.652,0,0,1,1.2-2.832c.14-.119.289-.246.448-.388l.381-.343-.022.008a7.074,7.074,0,0,0,2.085-3.3l.178-.681-.355.607a17.091,17.091,0,0,1-3.068,3.831,11.842,11.842,0,0,0-1.271.782,2.269,2.269,0,0,0-.276-.445c-.6-4,.752-4.827,2.623-5.966a9.686,9.686,0,0,0,4.885-6.1,2.476,2.476,0,0,0,.074-.239l-.187-.052c-.023.077-.046.153-.07.227a11.321,11.321,0,0,1-4.353,4.79,2.9,2.9,0,0,1-2.161.421,3.526,3.526,0,0,1,2.22-3.067,3.545,3.545,0,0,0,1.867-1.813l.088-.232-.254.128c-.565.282-1.326.662-1.876.246l.187-.091c1.063-.516,4.3-2.086,4.271-4.044l-.009-.657-.18.631c-.277.967-1.6,1.607-2.874,2.225-.263.128-.532.258-.791.391.24-.308.527-.655.828-1.016a21.568,21.568,0,0,0,1.439-1.852l.106-.166-.2.018a4.048,4.048,0,0,0-2,1.084c.3-1.271,2.418-7.506,7.308-11.146l-.106-.161c-4.846,2.841-7.71,8.279-8.373,9.844a3.768,3.768,0,0,1-.045-.69,7.86,7.86,0,0,1,.837-3.637q.143-.162.3-.32l-.125-.147a1.454,1.454,0,0,0-.329.349,8.168,8.168,0,0,0-1.921,5.156,1.943,1.943,0,0,1-.416-1.7l.179-.444-.338.34c-.909.918-1.288,3.57-1.019,5.328a4.07,4.07,0,0,1-.086,1.6,3.077,3.077,0,0,1-.327-1.041,13.932,13.932,0,0,1-.389-3c.043-.23.074-.365.075-.371l.2-.884-.382.822a1.162,1.162,0,0,0-.083.394,16.811,16.811,0,0,0-.273,5.059c-.11-.215-.268-.626-.384-.923-.312-.809-.38-.945-.482-.967l-.015,0-.014,0a.138.138,0,0,0-.114.08,12.97,12.97,0,0,0,.522,3.691.445.445,0,0,1-.417-.085,5.886,5.886,0,0,1-1.253-3.146l-.193-.013h0a7.994,7.994,0,0,0,1.138,4.467c.116.24.236.492.353.737a.877.877,0,0,1,.022.187,22.463,22.463,0,0,1-2.469-3.919l-.273-.586.09.64a33.028,33.028,0,0,0,1.884,5.454c.339.846.664,1.657.892,2.286a16.373,16.373,0,0,1-2.356-4.207l-.187-.513v.547c0,2.1,2.293,5.917,3.664,8.2.354.588.656,1.09.839,1.429a43.679,43.679,0,0,1-5.145-6.264l-.041-.078-.082.033a.152.152,0,0,0-.091.123c-.1.661,3.723,5.933,4.2,6.342l.089.075.058-.1c.033-.057.051-.089-.312-.945,1.7,2.015,1.977,2.406,2.624,4.63a24.712,24.712,0,0,0-4.456-4.211,7.664,7.664,0,0,1-2.3-2.236l-.183.065h0c.592,1.674,6.017,6.584,7.277,7.32.118.376.209.662.294.917-.6-.477-1.874-1.274-3.109-2.05a30.834,30.834,0,0,1-3.1-2.077l-.1-.1-.058.123c-.19.4.157,1.341.927,2.529,1.614,2.49,4.444,5.137,6.885,5.137h.031a10.63,10.63,0,0,1,.521,1.12,7.906,7.906,0,0,0,.549,1.145c-.146.024-.227-.014-.608-.18l-.08-.035-.226.4.124.1c2.2,1.731,2.2,1.731,3.267,3.75l.1.193-1.117-.487.5.425c.27.229.522.444.763.664a54.533,54.533,0,0,1-7.07-3.7l-.718-.534.587.675c.958,1.1,3.316,2.27,5.4,3.3.9.447,1.724.855,2.337,1.209l-.753-.311,2.346,2A4.669,4.669,0,0,1,284.262,60l-.817-.362.72.529a13.552,13.552,0,0,0,2.266,1.1,17.618,17.618,0,0,1,1.9.878c-.713.12-1.6.335-1.712.809l-.045.178.173-.065c1.643-.617,2.97.745,4.978,2.807.231.237.469.482.718.733,2.95,2.981,7.3,6.842,11.285,8.305l.677.249ZM274.923,45.294c.432.2,1.21.511,2.077.862,1.264.512,2.694,1.091,2.967,1.275.216.6.47,1.192,1.133,2.714C279.1,49.717,276.186,47.252,274.923,45.294Z" fill="url(#linear-gradient-3)"/>
        <path id="Path_70" data-name="Path 70" d="M282.444,55.209l.121-.152a45.59,45.59,0,0,0-6.931-4.719h-.005l-.046.01-.053.093.036.051c.894,1.239,3.139,2.518,4.942,3.545C281.321,54.5,282.024,54.9,282.444,55.209Z" fill="url(#linear-gradient-4)"/>
        <path id="Path_71" data-name="Path 71" d="M283.448,39.532l-.073.065.065.072a.538.538,0,0,0,.408.2.744.744,0,0,0,.442-.171c.746-.556,1.556-2.552,1.033-3.4l-.247-.4.069.465C285.335,37.644,284.163,38.9,283.448,39.532Z" fill="url(#linear-gradient-5)"/>
        <path id="Path_72" data-name="Path 72" d="M282.8,47.331l-.152.135.2.033a1.575,1.575,0,0,0,.258.02,2.3,2.3,0,0,0,1.546-.685A4.223,4.223,0,0,0,285.7,43.1l-.193.007a4.838,4.838,0,0,1-2.219,3.815C283.118,47.057,282.952,47.193,282.8,47.331Z" fill="url(#linear-gradient-6)"/>
        <path id="Path_73" data-name="Path 73" d="M287.32,49.473l-.133-.133-.031.186c-.273,1.663-.743,2.635-1.288,2.666l-.058,0-.025.052c-.314.66-.639,1.341-1.009,1.991l-.032.056.039.051a.382.382,0,0,0,.312.164.388.388,0,0,0,.075-.007c.664-.115,1.694-1.843,2.138-3.252C287.5,50.628,287.664,49.814,287.32,49.473Z" fill="url(#linear-gradient-7)"/>
        <path id="Path_74" data-name="Path 74" d="M284.7,48.474c1.046-.764,2.127-1.554,1.709-3.081l-.234-.861.045.891c.068,1.345-1.187,1.971-2.2,2.475a4.57,4.57,0,0,0-.917.536l-.023.031c-.09.187-.173.35-.248.5a2.547,2.547,0,0,0-.317,2.222l-.017.37.076-.134c.048.179.106.377.176.6l.082.262,1.072-2.732-.281.221a2.555,2.555,0,0,0-.842.9A4.27,4.27,0,0,1,284.7,48.474Z" fill="url(#linear-gradient-8)"/>
      </g>
      <path id="Path_75" data-name="Path 75" d="M404.669,56.919h2.795v.37h-1.18v4.082h-.444V57.289h-1.171v-.37Zm3.808,0h.649l1.252,3.875,1.268-3.875h.648v4.452h-.444l.053-4-1.306,4h-.442l-1.291-4,.057,4h-.444V56.919Z" fill="#231f20"/>
    </g>
    <g id="Group_91" data-name="Group 91">
      <path id="Path_76" data-name="Path 76" d="M318.821,82.97h-2.673v6.873h-.982V82.97h-2.673V82.1h6.328Z"/>
      <path id="Path_77" data-name="Path 77" d="M324.723,89.843h-.96V86.657a2.288,2.288,0,0,0-.3-1.314,1.029,1.029,0,0,0-.9-.431,1.506,1.506,0,0,0-.567.114,2.113,2.113,0,0,0-.529.311,2.227,2.227,0,0,0-.437.469,2.109,2.109,0,0,0-.289.6v3.437h-.96V81.879h.96V85.37a2.507,2.507,0,0,1,.916-.971,2.4,2.4,0,0,1,1.266-.349,1.8,1.8,0,0,1,.851.185,1.482,1.482,0,0,1,.556.5,2.184,2.184,0,0,1,.3.758,4.588,4.588,0,0,1,.093.944Z"/>
      <path id="Path_78" data-name="Path 78" d="M328.738,89.952a2.882,2.882,0,0,1-1.178-.235,2.783,2.783,0,0,1-.917-.638,2.907,2.907,0,0,1-.6-.944,3.1,3.1,0,0,1-.212-1.14,3.052,3.052,0,0,1,.212-1.134,2.877,2.877,0,0,1,.6-.938,2.845,2.845,0,0,1,.921-.639,2.913,2.913,0,0,1,1.179-.234,2.766,2.766,0,0,1,2.645,1.805,3.068,3.068,0,0,1,.2,1.1c0,.08,0,.152-.006.218a1.357,1.357,0,0,1-.015.153h-4.724a2.189,2.189,0,0,0,.2.774,1.993,1.993,0,0,0,.425.6,1.95,1.95,0,0,0,.6.393,1.768,1.768,0,0,0,.7.142,1.883,1.883,0,0,0,.512-.071,2.207,2.207,0,0,0,.469-.191,1.612,1.612,0,0,0,.388-.295,1.208,1.208,0,0,0,.256-.392l.829.229a2.1,2.1,0,0,1-.387.578,2.568,2.568,0,0,1-.567.453,2.96,2.96,0,0,1-.715.3A3.035,3.035,0,0,1,328.738,89.952Zm1.953-3.338a2.074,2.074,0,0,0-.2-.748,2.019,2.019,0,0,0-.426-.584,1.952,1.952,0,0,0-2.034-.376,1.846,1.846,0,0,0-.6.382,1.923,1.923,0,0,0-.415.584,2.157,2.157,0,0,0-.19.742Z"/>
      <path id="Path_79" data-name="Path 79" d="M338.033,82.14h.928l1.025,2.695,1.037-2.695h.927l-1.341,3.372,1.33,3.2,2.618-6.611h1.07l-3.241,7.746h-.85L340,86.188l-1.549,3.655H337.6L334.368,82.1h1.058l2.629,6.611,1.321-3.2Z"/>
      <path id="Path_80" data-name="Path 80" d="M349.03,84.988a2.465,2.465,0,0,0-1.27.371,1.891,1.891,0,0,0-.781.971v3.513h-.959V84.148h.894v1.32a2.671,2.671,0,0,1,.774-.954,1.927,1.927,0,0,1,1.026-.41h.185a.7.7,0,0,1,.131.011Z"/>
      <path id="Path_81" data-name="Path 81" d="M349.979,83.079v-1.2h.96v1.2Zm0,6.764V84.148h.96v5.695Z"/>
      <path id="Path_82" data-name="Path 82" d="M355.434,89.559c-.058.029-.134.064-.229.1s-.2.08-.322.12a2.891,2.891,0,0,1-.393.1,2.539,2.539,0,0,1-.441.038,1.458,1.458,0,0,1-.906-.289,1.054,1.054,0,0,1-.382-.9V84.9h-.775v-.753h.775v-1.9h.96v1.9H355V84.9h-1.277v3.535a.6.6,0,0,0,.207.458.7.7,0,0,0,.437.141,1.392,1.392,0,0,0,.518-.092,2.2,2.2,0,0,0,.322-.148Z"/>
      <path id="Path_83" data-name="Path 83" d="M358.773,89.952a2.89,2.89,0,0,1-1.179-.235,2.778,2.778,0,0,1-.916-.638,2.89,2.89,0,0,1-.6-.944A3.079,3.079,0,0,1,355.87,87a3.032,3.032,0,0,1,.213-1.134,2.843,2.843,0,0,1,1.522-1.577,2.9,2.9,0,0,1,1.178-.234,2.809,2.809,0,0,1,1.173.24,2.772,2.772,0,0,1,.9.638,2.816,2.816,0,0,1,.573.927,3.067,3.067,0,0,1,.2,1.1c0,.08,0,.152-.005.218a1.317,1.317,0,0,1-.016.153h-4.724a2.189,2.189,0,0,0,.2.774,1.993,1.993,0,0,0,.425.6,1.962,1.962,0,0,0,.6.393,1.771,1.771,0,0,0,.7.142,1.883,1.883,0,0,0,.512-.071,2.215,2.215,0,0,0,.47-.191,1.626,1.626,0,0,0,.387-.295,1.211,1.211,0,0,0,.257-.392l.828.229a2.1,2.1,0,0,1-.386.578,2.6,2.6,0,0,1-.568.453,2.969,2.969,0,0,1-.714.3A3.035,3.035,0,0,1,358.773,89.952Zm1.952-3.338a2.055,2.055,0,0,0-.2-.748,2.016,2.016,0,0,0-.425-.584,1.929,1.929,0,0,0-.6-.376,1.974,1.974,0,0,0-1.44,0,1.868,1.868,0,0,0-.6.382,1.939,1.939,0,0,0-.414.584,2.159,2.159,0,0,0-.191.742Z"/>
      <path id="Path_84" data-name="Path 84" d="M365.613,89.843V82.1h3.229a2.093,2.093,0,0,1,.943.213,2.374,2.374,0,0,1,.743.567,2.727,2.727,0,0,1,.485.8,2.421,2.421,0,0,1,.175.9,2.688,2.688,0,0,1-.164.928,2.578,2.578,0,0,1-.463.8,2.279,2.279,0,0,1-.721.557,2.08,2.08,0,0,1-.932.207H366.6v2.782Zm.982-3.655h2.258a1.2,1.2,0,0,0,.551-.125,1.239,1.239,0,0,0,.42-.35,1.693,1.693,0,0,0,.273-.518,1.962,1.962,0,0,0,.1-.622,1.755,1.755,0,0,0-.114-.632,1.721,1.721,0,0,0-.306-.513,1.337,1.337,0,0,0-.447-.338,1.264,1.264,0,0,0-.541-.12H366.6Z"/>
      <path id="Path_85" data-name="Path 85" d="M374.668,89.952a2.889,2.889,0,0,1-1.178-.235,2.778,2.778,0,0,1-.916-.638,2.89,2.89,0,0,1-.6-.944,3.079,3.079,0,0,1-.213-1.14,3.032,3.032,0,0,1,.213-1.134,2.843,2.843,0,0,1,1.522-1.577,2.9,2.9,0,0,1,1.178-.234,2.77,2.77,0,0,1,2.646,1.805,3.067,3.067,0,0,1,.2,1.1c0,.08,0,.152-.005.218a1.317,1.317,0,0,1-.016.153h-4.724a2.189,2.189,0,0,0,.2.774,1.993,1.993,0,0,0,.425.6,1.95,1.95,0,0,0,.6.393,1.771,1.771,0,0,0,.7.142,1.884,1.884,0,0,0,.512-.071,2.186,2.186,0,0,0,.469-.191,1.612,1.612,0,0,0,.388-.295,1.211,1.211,0,0,0,.257-.392l.828.229a2.1,2.1,0,0,1-.386.578,2.6,2.6,0,0,1-.568.453,2.969,2.969,0,0,1-.714.3A3.042,3.042,0,0,1,374.668,89.952Zm1.953-3.338a2.054,2.054,0,0,0-.2-.748,2.016,2.016,0,0,0-.425-.584,1.929,1.929,0,0,0-.6-.376,1.974,1.974,0,0,0-1.44,0,1.856,1.856,0,0,0-.6.382,1.92,1.92,0,0,0-.414.584,2.158,2.158,0,0,0-.191.742Z"/>
      <path id="Path_86" data-name="Path 86" d="M381.082,89.952A2.794,2.794,0,0,1,379,89.068a2.892,2.892,0,0,1-.583-.938,3.064,3.064,0,0,1-.208-1.124,3.032,3.032,0,0,1,.213-1.134,2.922,2.922,0,0,1,.59-.938,2.789,2.789,0,0,1,2.066-.884,2.815,2.815,0,0,1,1.168.24,2.771,2.771,0,0,1,.91.644,2.922,2.922,0,0,1,.59.938,3.032,3.032,0,0,1,.213,1.134,3.064,3.064,0,0,1-.208,1.124,2.826,2.826,0,0,1-1.5,1.582A2.805,2.805,0,0,1,381.082,89.952ZM379.2,87.017a2.282,2.282,0,0,0,.147.829,2.129,2.129,0,0,0,.4.666,1.907,1.907,0,0,0,.6.447,1.736,1.736,0,0,0,1.473,0,1.919,1.919,0,0,0,.605-.453,2.119,2.119,0,0,0,.41-.676,2.331,2.331,0,0,0,.147-.835,2.3,2.3,0,0,0-.147-.823,2.135,2.135,0,0,0-.41-.677,1.931,1.931,0,0,0-.605-.452,1.694,1.694,0,0,0-.737-.164,1.639,1.639,0,0,0-.736.169,1.941,1.941,0,0,0-.6.458,2.2,2.2,0,0,0-.4.677A2.329,2.329,0,0,0,379.2,87.017Z"/>
      <path id="Path_87" data-name="Path 87" d="M388.2,89.952a2.244,2.244,0,0,1-1.249-.349,2.66,2.66,0,0,1-.857-.884v3.448h-.96V84.148h.851v1.069a2.638,2.638,0,0,1,.878-.845,2.285,2.285,0,0,1,1.195-.322,2.424,2.424,0,0,1,1.08.24,2.692,2.692,0,0,1,.851.649,3.045,3.045,0,0,1,.562.944,3.111,3.111,0,0,1,.2,1.112,3.533,3.533,0,0,1-.185,1.151,2.9,2.9,0,0,1-.524.938,2.53,2.53,0,0,1-.808.633A2.276,2.276,0,0,1,388.2,89.952Zm-.3-.829a1.63,1.63,0,0,0,.769-.18,1.89,1.89,0,0,0,.59-.48,2.188,2.188,0,0,0,.376-.682,2.392,2.392,0,0,0,.131-.786,2.19,2.19,0,0,0-.153-.812,2.22,2.22,0,0,0-.414-.677,1.976,1.976,0,0,0-.617-.458,1.759,1.759,0,0,0-.769-.169,1.519,1.519,0,0,0-.54.1,2.415,2.415,0,0,0-.524.272,1.9,1.9,0,0,0-.425.4,1.209,1.209,0,0,0-.235.5v1.626a2.47,2.47,0,0,0,.306.529,2.145,2.145,0,0,0,.425.426,2.079,2.079,0,0,0,.513.283A1.587,1.587,0,0,0,387.9,89.123Z"/>
      <path id="Path_88" data-name="Path 88" d="M391.949,81.879h.96V88.37a.7.7,0,0,0,.169.5.621.621,0,0,0,.474.179,1.244,1.244,0,0,0,.284-.038,2.194,2.194,0,0,0,.306-.093l.153.775a3.232,3.232,0,0,1-.568.164,3.036,3.036,0,0,1-.578.065,1.2,1.2,0,0,1-.878-.316,1.182,1.182,0,0,1-.322-.884Z"/>
      <path id="Path_89" data-name="Path 89" d="M397.568,89.952a2.89,2.89,0,0,1-1.179-.235,2.778,2.778,0,0,1-.916-.638,2.907,2.907,0,0,1-.6-.944,3.1,3.1,0,0,1-.213-1.14,3.052,3.052,0,0,1,.213-1.134,2.843,2.843,0,0,1,1.522-1.577,2.9,2.9,0,0,1,1.178-.234,2.809,2.809,0,0,1,1.173.24,2.772,2.772,0,0,1,.9.638,2.817,2.817,0,0,1,.573.927,3.067,3.067,0,0,1,.2,1.1c0,.08,0,.152,0,.218a1.316,1.316,0,0,1-.016.153H395.68a2.21,2.21,0,0,0,.2.774,2,2,0,0,0,.426.6,1.946,1.946,0,0,0,.594.393,1.772,1.772,0,0,0,.7.142,1.9,1.9,0,0,0,.513-.071,2.207,2.207,0,0,0,.469-.191,1.606,1.606,0,0,0,.387-.295,1.2,1.2,0,0,0,.257-.392l.829.229a2.122,2.122,0,0,1-.387.578,2.574,2.574,0,0,1-.568.453,2.952,2.952,0,0,1-.714.3A3.035,3.035,0,0,1,397.568,89.952Zm1.952-3.338a2.054,2.054,0,0,0-.2-.748,2,2,0,0,0-.425-.584,1.917,1.917,0,0,0-1.315-.512,1.893,1.893,0,0,0-.719.136,1.845,1.845,0,0,0-.6.382,1.924,1.924,0,0,0-.415.584,2.158,2.158,0,0,0-.191.742Z"/>
    </g>
    <rect id="Rectangle_120" data-name="Rectangle 120" width="172" height="81" transform="translate(240 11)" fill="rgba(255,255,255,0)"/>
  </g>
</svg>
